<svg id="visual" viewBox="0 0 900 600" width="900" height="600" xmlns="http://www.w3.org/2000/svg" xmlns:xlink="http://www.w3.org/1999/xlink" version="1.1"><rect x="0" y="0" width="900" height="600" fill="#001122"></rect><g transform="translate(929.0589310796021 538.8561662679886)"><path d="M198.1 -234.5C242.7 -198.6 255.3 -122.9 254.5 -55.5C253.6 11.8 239.4 70.9 224.7 161C210 251.1 194.8 372.2 145.4 383.1C96 394 12.4 294.8 -72.9 244.5C-158.3 194.3 -245.4 193.2 -285.4 151.4C-325.4 109.7 -318.3 27.4 -284 -29.7C-249.7 -86.9 -188.1 -118.8 -136.2 -153.5C-84.4 -188.2 -42.2 -225.6 17.3 -246.2C76.7 -266.7 153.4 -270.5 198.1 -234.5" fill="#0066FF"></path></g></svg>