<svg id="visual" viewBox="0 0 900 600" width="900" height="600" xmlns="http://www.w3.org/2000/svg" xmlns:xlink="http://www.w3.org/1999/xlink" version="1.1"><rect x="0" y="0" width="900" height="600" fill="#001220"></rect><path d="M0 444L21.5 438.5C43 433 86 422 128.8 411.7C171.7 401.3 214.3 391.7 257.2 381.3C300 371 343 360 385.8 359.3C428.7 358.7 471.3 368.3 514.2 375.8C557 383.3 600 388.7 642.8 386.3C685.7 384 728.3 374 771.2 372.8C814 371.7 857 379.3 878.5 383.2L900 387L900 601L878.5 601C857 601 814 601 771.2 601C728.3 601 685.7 601 642.8 601C600 601 557 601 514.2 601C471.3 601 428.7 601 385.8 601C343 601 300 601 257.2 601C214.3 601 171.7 601 128.8 601C86 601 43 601 21.5 601L0 601Z" fill="#0066ff"></path><path d="M0 408L21.5 408.8C43 409.7 86 411.3 128.8 421.2C171.7 431 214.3 449 257.2 445.8C300 442.7 343 418.3 385.8 417.5C428.7 416.7 471.3 439.3 514.2 443.2C557 447 600 432 642.8 431.2C685.7 430.3 728.3 443.7 771.2 447C814 450.3 857 443.7 878.5 440.3L900 437L900 601L878.5 601C857 601 814 601 771.2 601C728.3 601 685.7 601 642.8 601C600 601 557 601 514.2 601C471.3 601 428.7 601 385.8 601C343 601 300 601 257.2 601C214.3 601 171.7 601 128.8 601C86 601 43 601 21.5 601L0 601Z" fill="#0080ef"></path><path d="M0 484L21.5 478.3C43 472.7 86 461.3 128.8 456C171.7 450.7 214.3 451.3 257.2 450.8C300 450.3 343 448.7 385.8 457.2C428.7 465.7 471.3 484.3 514.2 486.7C557 489 600 475 642.8 466.7C685.7 458.3 728.3 455.7 771.2 453.7C814 451.7 857 450.3 878.5 449.7L900 449L900 601L878.5 601C857 601 814 601 771.2 601C728.3 601 685.7 601 642.8 601C600 601 557 601 514.2 601C471.3 601 428.7 601 385.8 601C343 601 300 601 257.2 601C214.3 601 171.7 601 128.8 601C86 601 43 601 21.5 601L0 601Z" fill="#0090d1"></path><path d="M0 541L21.5 534.7C43 528.3 86 515.7 128.8 512.3C171.7 509 214.3 515 257.2 515.7C300 516.3 343 511.7 385.8 506.8C428.7 502 471.3 497 514.2 495.2C557 493.3 600 494.7 642.8 494.5C685.7 494.3 728.3 492.7 771.2 490.5C814 488.3 857 485.7 878.5 484.3L900 483L900 601L878.5 601C857 601 814 601 771.2 601C728.3 601 685.7 601 642.8 601C600 601 557 601 514.2 601C471.3 601 428.7 601 385.8 601C343 601 300 601 257.2 601C214.3 601 171.7 601 128.8 601C86 601 43 601 21.5 601L0 601Z" fill="#0097ad"></path><path d="M0 532L21.5 535.5C43 539 86 546 128.8 548.3C171.7 550.7 214.3 548.3 257.2 549.2C300 550 343 554 385.8 557.3C428.7 560.7 471.3 563.3 514.2 560.8C557 558.3 600 550.7 642.8 545.2C685.7 539.7 728.3 536.3 771.2 540.5C814 544.7 857 556.3 878.5 562.2L900 568L900 601L878.5 601C857 601 814 601 771.2 601C728.3 601 685.7 601 642.8 601C600 601 557 601 514.2 601C471.3 601 428.7 601 385.8 601C343 601 300 601 257.2 601C214.3 601 171.7 601 128.8 601C86 601 43 601 21.5 601L0 601Z" fill="#009473"></path></svg>