<svg id="visual" viewBox="0 0 900 600" width="900" height="600" xmlns="http://www.w3.org/2000/svg" xmlns:xlink="http://www.w3.org/1999/xlink" version="1.1"><rect x="0" y="0" width="900" height="600" fill="#001220"></rect><path d="M0 460L21.5 451.2C43 442.3 86 424.7 128.8 424.3C171.7 424 214.3 441 257.2 442.7C300 444.3 343 430.7 385.8 425.8C428.7 421 471.3 425 514.2 428.5C557 432 600 435 642.8 431.5C685.7 428 728.3 418 771.2 418.7C814 419.3 857 430.7 878.5 436.3L900 442L900 601L878.5 601C857 601 814 601 771.2 601C728.3 601 685.7 601 642.8 601C600 601 557 601 514.2 601C471.3 601 428.7 601 385.8 601C343 601 300 601 257.2 601C214.3 601 171.7 601 128.8 601C86 601 43 601 21.5 601L0 601Z" fill="#0066ff"></path><path d="M0 449L21.5 457.7C43 466.3 86 483.7 128.8 485.5C171.7 487.3 214.3 473.7 257.2 474.2C300 474.7 343 489.3 385.8 492C428.7 494.7 471.3 485.3 514.2 474.7C557 464 600 452 642.8 455.5C685.7 459 728.3 478 771.2 480.5C814 483 857 469 878.5 462L900 455L900 601L878.5 601C857 601 814 601 771.2 601C728.3 601 685.7 601 642.8 601C600 601 557 601 514.2 601C471.3 601 428.7 601 385.8 601C343 601 300 601 257.2 601C214.3 601 171.7 601 128.8 601C86 601 43 601 21.5 601L0 601Z" fill="#0080ef"></path><path d="M0 522L21.5 521.7C43 521.3 86 520.7 128.8 512.8C171.7 505 214.3 490 257.2 490.2C300 490.3 343 505.7 385.8 505.2C428.7 504.7 471.3 488.3 514.2 481.5C557 474.7 600 477.3 642.8 486.7C685.7 496 728.3 512 771.2 517.2C814 522.3 857 516.7 878.5 513.8L900 511L900 601L878.5 601C857 601 814 601 771.2 601C728.3 601 685.7 601 642.8 601C600 601 557 601 514.2 601C471.3 601 428.7 601 385.8 601C343 601 300 601 257.2 601C214.3 601 171.7 601 128.8 601C86 601 43 601 21.5 601L0 601Z" fill="#0090d1"></path><path d="M0 508L21.5 515C43 522 86 536 128.8 538.8C171.7 541.7 214.3 533.3 257.2 533.3C300 533.3 343 541.7 385.8 540C428.7 538.3 471.3 526.7 514.2 523.3C557 520 600 525 642.8 530.8C685.7 536.7 728.3 543.3 771.2 547.3C814 551.3 857 552.7 878.5 553.3L900 554L900 601L878.5 601C857 601 814 601 771.2 601C728.3 601 685.7 601 642.8 601C600 601 557 601 514.2 601C471.3 601 428.7 601 385.8 601C343 601 300 601 257.2 601C214.3 601 171.7 601 128.8 601C86 601 43 601 21.5 601L0 601Z" fill="#0097ad"></path><path d="M0 571L21.5 572.3C43 573.7 86 576.3 128.8 576.8C171.7 577.3 214.3 575.7 257.2 572.5C300 569.3 343 564.7 385.8 559.8C428.7 555 471.3 550 514.2 549.2C557 548.3 600 551.7 642.8 553.5C685.7 555.3 728.3 555.7 771.2 558.3C814 561 857 566 878.5 568.5L900 571L900 601L878.5 601C857 601 814 601 771.2 601C728.3 601 685.7 601 642.8 601C600 601 557 601 514.2 601C471.3 601 428.7 601 385.8 601C343 601 300 601 257.2 601C214.3 601 171.7 601 128.8 601C86 601 43 601 21.5 601L0 601Z" fill="#009473"></path></svg>