<svg id="visual" viewBox="0 0 900 600" width="900" height="600" xmlns="http://www.w3.org/2000/svg" xmlns:xlink="http://www.w3.org/1999/xlink" version="1.1"><rect x="0" y="0" width="900" height="600" fill="#001220"></rect><path d="M0 138L21.5 146.8C43 155.7 86 173.3 128.8 173.7C171.7 174 214.3 157 257.2 155.3C300 153.7 343 167.3 385.8 172.2C428.7 177 471.3 173 514.2 169.5C557 166 600 163 642.8 166.5C685.7 170 728.3 180 771.2 179.3C814 178.7 857 167.3 878.5 161.7L900 156L900 0L878.5 0C857 0 814 0 771.2 0C728.3 0 685.7 0 642.8 0C600 0 557 0 514.2 0C471.3 0 428.7 0 385.8 0C343 0 300 0 257.2 0C214.3 0 171.7 0 128.8 0C86 0 43 0 21.5 0L0 0Z" fill="#0066ff"></path><path d="M0 149L21.5 140.3C43 131.7 86 114.3 128.8 112.5C171.7 110.7 214.3 124.3 257.2 123.8C300 123.3 343 108.7 385.8 106C428.7 103.3 471.3 112.7 514.2 123.3C557 134 600 146 642.8 142.5C685.7 139 728.3 120 771.2 117.5C814 115 857 129 878.5 136L900 143L900 0L878.5 0C857 0 814 0 771.2 0C728.3 0 685.7 0 642.8 0C600 0 557 0 514.2 0C471.3 0 428.7 0 385.8 0C343 0 300 0 257.2 0C214.3 0 171.7 0 128.8 0C86 0 43 0 21.5 0L0 0Z" fill="#0080ef"></path><path d="M0 76L21.5 76.3C43 76.7 86 77.3 128.8 85.2C171.7 93 214.3 108 257.2 107.8C300 107.7 343 92.3 385.8 92.8C428.7 93.3 471.3 109.7 514.2 116.5C557 123.3 600 120.7 642.8 111.3C685.7 102 728.3 86 771.2 80.8C814 75.7 857 81.3 878.5 84.2L900 87L900 0L878.5 0C857 0 814 0 771.2 0C728.3 0 685.7 0 642.8 0C600 0 557 0 514.2 0C471.3 0 428.7 0 385.8 0C343 0 300 0 257.2 0C214.3 0 171.7 0 128.8 0C86 0 43 0 21.5 0L0 0Z" fill="#0090d1"></path><path d="M0 90L21.5 83C43 76 86 62 128.8 59.2C171.7 56.3 214.3 64.7 257.2 64.7C300 64.7 343 56.3 385.8 58C428.7 59.7 471.3 71.3 514.2 74.7C557 78 600 73 642.8 67.2C685.7 61.3 728.3 54.7 771.2 50.7C814 46.7 857 45.3 878.5 44.7L900 44L900 0L878.5 0C857 0 814 0 771.2 0C728.3 0 685.7 0 642.8 0C600 0 557 0 514.2 0C471.3 0 428.7 0 385.8 0C343 0 300 0 257.2 0C214.3 0 171.7 0 128.8 0C86 0 43 0 21.5 0L0 0Z" fill="#0097ad"></path><path d="M0 27L21.5 25.7C43 24.3 86 21.7 128.8 21.2C171.7 20.7 214.3 22.3 257.2 25.5C300 28.7 343 33.3 385.8 38.2C428.7 43 471.3 48 514.2 48.8C557 49.7 600 46.3 642.8 44.5C685.7 42.7 728.3 42.3 771.2 39.7C814 37 857 32 878.5 29.5L900 27L900 0L878.5 0C857 0 814 0 771.2 0C728.3 0 685.7 0 642.8 0C600 0 557 0 514.2 0C471.3 0 428.7 0 385.8 0C343 0 300 0 257.2 0C214.3 0 171.7 0 128.8 0C86 0 43 0 21.5 0L0 0Z" fill="#009473"></path></svg>