<svg id="visual" viewBox="0 0 900 600" width="900" height="600" xmlns="http://www.w3.org/2000/svg" xmlns:xlink="http://www.w3.org/1999/xlink" version="1.1"><rect x="0" y="0" width="900" height="600" fill="#001220"></rect><path d="M0 173L21.5 184.2C43 195.3 86 217.7 128.8 218C171.7 218.3 214.3 196.7 257.2 194.5C300 192.3 343 209.7 385.8 215.7C428.7 221.7 471.3 216.3 514.2 211.8C557 207.3 600 203.7 642.8 208.2C685.7 212.7 728.3 225.3 771.2 224.5C814 223.7 857 209.3 878.5 202.2L900 195L900 0L878.5 0C857 0 814 0 771.2 0C728.3 0 685.7 0 642.8 0C600 0 557 0 514.2 0C471.3 0 428.7 0 385.8 0C343 0 300 0 257.2 0C214.3 0 171.7 0 128.8 0C86 0 43 0 21.5 0L0 0Z" fill="#0066ff"></path><path d="M0 186L21.5 175.3C43 164.7 86 143.3 128.8 141C171.7 138.7 214.3 155.3 257.2 154.7C300 154 343 136 385.8 132.8C428.7 129.7 471.3 141.3 514.2 154.7C557 168 600 183 642.8 178.7C685.7 174.3 728.3 150.7 771.2 147.3C814 144 857 161 878.5 169.5L900 178L900 0L878.5 0C857 0 814 0 771.2 0C728.3 0 685.7 0 642.8 0C600 0 557 0 514.2 0C471.3 0 428.7 0 385.8 0C343 0 300 0 257.2 0C214.3 0 171.7 0 128.8 0C86 0 43 0 21.5 0L0 0Z" fill="#0080ef"></path><path d="M0 95L21.5 95.5C43 96 86 97 128.8 106.8C171.7 116.7 214.3 135.3 257.2 135C300 134.7 343 115.3 385.8 115.8C428.7 116.3 471.3 136.7 514.2 145.3C557 154 600 151 642.8 139.3C685.7 127.7 728.3 107.3 771.2 100.8C814 94.3 857 101.7 878.5 105.3L900 109L900 0L878.5 0C857 0 814 0 771.2 0C728.3 0 685.7 0 642.8 0C600 0 557 0 514.2 0C471.3 0 428.7 0 385.8 0C343 0 300 0 257.2 0C214.3 0 171.7 0 128.8 0C86 0 43 0 21.5 0L0 0Z" fill="#0090d1"></path><path d="M0 113L21.5 104.3C43 95.7 86 78.3 128.8 74.8C171.7 71.3 214.3 81.7 257.2 81.7C300 81.7 343 71.3 385.8 73.3C428.7 75.3 471.3 89.7 514.2 93.7C557 97.7 600 91.3 642.8 84.2C685.7 77 728.3 69 771.2 64C814 59 857 57 878.5 56L900 55L900 0L878.5 0C857 0 814 0 771.2 0C728.3 0 685.7 0 642.8 0C600 0 557 0 514.2 0C471.3 0 428.7 0 385.8 0C343 0 300 0 257.2 0C214.3 0 171.7 0 128.8 0C86 0 43 0 21.5 0L0 0Z" fill="#0097ad"></path><path d="M0 34L21.5 32.3C43 30.7 86 27.3 128.8 26.7C171.7 26 214.3 28 257.2 32C300 36 343 42 385.8 48C428.7 54 471.3 60 514.2 61C557 62 600 58 642.8 55.8C685.7 53.7 728.3 53.3 771.2 50C814 46.7 857 40.3 878.5 37.2L900 34L900 0L878.5 0C857 0 814 0 771.2 0C728.3 0 685.7 0 642.8 0C600 0 557 0 514.2 0C471.3 0 428.7 0 385.8 0C343 0 300 0 257.2 0C214.3 0 171.7 0 128.8 0C86 0 43 0 21.5 0L0 0Z" fill="#009473"></path></svg>